<?xml version="1.0" encoding="UTF-8"?>
<svg class="guides" alt="GoDaddy guides" width="388" height="45" viewBox="0 0 340 45" fill="none" xmlns="http://www.w3.org/2000/svg">
        <path d="M43.57 2.056c-5.25-3.28-12.16-2.5-18.314 1.374C19.103-.444 12.193-1.224 6.944 2.056c-8.293 5.183-9.301 18.53-2.25 29.814 5.2 8.319 13.326 13.193 20.562 13.103 7.235.09 15.364-4.782 20.561-13.103C52.87 20.586 51.863 7.239 43.57 2.056zM8.506 29.487c-1.484-2.374-2.578-4.88-3.254-7.452-.636-2.42-.874-4.784-.705-7.023.315-4.168 2.013-7.416 4.779-9.145 2.765-1.73 6.43-1.83 10.314-.287.584.233 1.162.503 1.736.8a31.851 31.851 0 00-5.592 6.72c-4.286 6.857-5.587 14.473-4.095 20.56a27.644 27.644 0 01-3.183-4.173zm36.754-7.45c-.677 2.572-1.77 5.078-3.254 7.452a27.887 27.887 0 01-3.186 4.175c1.336-5.448.433-12.123-2.847-18.38a.825.825 0 00-1.184-.324l-10.21 6.382a.834.834 0 00-.266 1.15l1.496 2.395c.244.392.76.51 1.15.265l6.619-4.136c.222.636.422 1.276.59 1.92.636 2.422.874 4.785.705 7.024-.315 4.168-2.012 7.416-4.778 9.145-1.383.863-2.989 1.321-4.733 1.37H25.15c-1.745-.049-3.35-.507-4.733-1.37-2.768-1.73-4.464-4.977-4.778-9.145-.17-2.239.068-4.602.704-7.023.676-2.571 1.77-5.078 3.254-7.452 1.483-2.374 3.256-4.457 5.27-6.191 1.897-1.634 3.918-2.884 6.005-3.712 3.885-1.546 7.548-1.443 10.314.287 2.768 1.73 4.463 4.977 4.778 9.145.17 2.237-.069 4.6-.704 7.024zM263.368 17.812a.62.62 0 01.191.455V34.58a.62.62 0 01-.191.456.62.62 0 01-.453.19h-1.33a.652.652 0 01-.456-.17.56.56 0 01-.188-.438v-2.466c-.531 1.088-1.353 1.955-2.466 2.6-1.113.643-2.417.967-3.907.967-2.301 0-4.123-.696-5.463-2.087-1.34-1.392-2.01-3.237-2.01-5.538v-9.827c0-.177.064-.327.19-.455a.584.584 0 01.418-.191h1.365c.178 0 .328.064.456.19a.62.62 0 01.191.456v9.37c0 1.822.473 3.244 1.424 4.27.948 1.024 2.307 1.536 4.078 1.536 1.744 0 3.136-.537 4.172-1.612 1.038-1.075 1.556-2.472 1.556-4.191v-9.37c0-.178.062-.328.189-.456a.621.621 0 01.455-.19h1.33c.171 0 .323.061.449.188zm-21.283-.189h-1.365a.622.622 0 00-.456.19.62.62 0 00-.191.457V21c-.556-1.139-1.428-2.061-2.618-2.77-1.19-.708-2.53-1.062-4.02-1.062-2.479 0-4.573.867-6.279 2.6-1.708 1.731-2.56 3.938-2.56 6.618s.854 4.888 2.56 6.62c1.708 1.731 3.813 2.598 6.317 2.598 1.467 0 2.794-.349 3.984-1.042 1.188-.696 2.062-1.6 2.618-2.713v3.49c0 1.822-.543 3.275-1.631 4.363-1.087 1.087-2.669 1.63-4.742 1.63-1.695 0-3.054-.378-4.078-1.138-1.023-.758-1.676-1.708-1.954-2.845-.077-.355-.33-.492-.758-.418l-1.366.38c-.379.049-.518.265-.417.644.404 1.67 1.346 3.022 2.825 4.059 1.48 1.036 3.37 1.556 5.671 1.556 2.858 0 5.084-.758 6.677-2.276 1.595-1.517 2.391-3.49 2.391-5.919v-17.11a.66.66 0 00-.171-.457.565.565 0 00-.437-.186zm-3.812 13.658c-1.201 1.316-2.738 1.974-4.609 1.974-1.848 0-3.376-.658-4.592-1.974-1.214-1.314-1.822-2.946-1.822-4.894 0-1.922.606-3.54 1.822-4.855 1.214-1.314 2.744-1.974 4.592-1.974 1.871 0 3.408.651 4.609 1.955s1.802 2.928 1.802 4.874c0 1.946-.601 3.58-1.802 4.894zm66.598-14.152c-2.606 0-4.761.899-6.468 2.693-1.708 1.796-2.56 4.01-2.56 6.638 0 2.655.861 4.862 2.58 6.62 1.719 1.757 3.907 2.637 6.563 2.637 1.67 0 3.162-.317 4.476-.949 1.315-.631 2.353-1.505 3.111-2.618.201-.327.152-.593-.152-.796l-1.1-.683c-.33-.227-.632-.178-.91.152-1.518 1.719-3.301 2.58-5.35 2.58-1.796 0-3.301-.593-4.515-1.784-1.213-1.188-1.883-2.68-2.01-4.476h14.568c.404 0 .608-.214.608-.644v-.493c0-2.605-.842-4.735-2.524-6.392-1.683-1.657-3.787-2.485-6.317-2.485zm-6.26 8.08c.201-1.692.88-3.09 2.03-4.19 1.151-1.101 2.56-1.651 4.23-1.651 1.693 0 3.116.524 4.268 1.576 1.152 1.048 1.816 2.472 1.993 4.268h-12.521v-.002zm31.526 5.124c0 1.417-.625 2.67-1.877 3.755-1.252 1.087-3.029 1.63-5.33 1.63-2.858 0-5.172-.834-6.943-2.504-.556-.53-.608-1-.152-1.404l.645-.57c.304-.278.657-.24 1.062.114 1.592 1.466 3.427 2.2 5.501 2.2 1.366 0 2.441-.303 3.224-.91.784-.607 1.175-1.314 1.175-2.123 0-1.541-1.201-2.541-3.602-2.997l-3.072-.57c-3.239-.582-4.858-2.149-4.858-4.705 0-1.517.657-2.75 1.974-3.699 1.314-.948 2.958-1.423 4.932-1.423 2.706 0 4.843.734 6.412 2.2.379.33.391.657.038.987l-.644.644c-.355.304-.722.304-1.1 0-1.467-1.113-3.1-1.67-4.894-1.67-1.24 0-2.22.273-2.939.816-.722.544-1.081 1.22-1.081 2.03 0 1.288.986 2.138 2.958 2.54l3.301.645c1.796.355 3.123.93 3.984 1.726.856.802 1.286 1.896 1.286 3.288zM291.746 9.728h-1.366a.622.622 0 00-.456.19.623.623 0 00-.19.457v10.588c-.557-1.14-1.428-2.055-2.619-2.751-1.19-.696-2.53-1.043-4.02-1.043-2.453 0-4.54.88-6.259 2.638-1.721 1.757-2.58 3.977-2.58 6.657s.861 4.894 2.58 6.639c1.719 1.744 3.819 2.618 6.298 2.618 1.466 0 2.789-.355 3.964-1.062 1.176-.709 2.055-1.631 2.638-2.77v2.693c0 .178.064.33.19.456.127.126.278.19.456.19h1.366a.556.556 0 00.437-.19.662.662 0 00.171-.456V10.375a.67.67 0 00-.171-.456.577.577 0 00-.439-.19zm-3.774 21.609c-1.201 1.303-2.738 1.954-4.609 1.954-1.873 0-3.408-.65-4.609-1.954-1.201-1.302-1.803-2.927-1.803-4.875s.6-3.585 1.803-4.913c1.201-1.327 2.738-1.99 4.609-1.99s3.408.663 4.609 1.99c1.201 1.328 1.802 2.965 1.802 4.913-.002 1.948-.601 3.573-1.802 4.875zm-17.34-13.525a.661.661 0 01.171.455V34.58c0 .178-.058.33-.171.456a.562.562 0 01-.437.19h-1.366a.616.616 0 01-.456-.19.623.623 0 01-.19-.456V18.267c0-.177.062-.327.19-.455a.625.625 0 01.456-.191h1.366a.57.57 0 01.437.19zm.381-6.754c.417.43.625.935.625 1.517 0 .583-.208 1.088-.625 1.518-.417.43-.916.645-1.499.645a2.011 2.011 0 01-1.498-.645 2.104 2.104 0 01-.625-1.518c0-.582.207-1.087.625-1.517.417-.43.916-.645 1.498-.645.583 0 1.082.214 1.499.645zM97.91 17.092c5.405 0 9.745 4.192 9.745 9.524 0 5.297-4.34 9.413-9.745 9.413-5.369 0-9.708-4.119-9.708-9.413 0-5.332 4.34-9.524 9.708-9.524zm0 13.962c2.511 0 4.395-2.002 4.395-4.476 0-2.475-1.884-4.513-4.395-4.513-2.475 0-4.358 2.038-4.358 4.513 0 2.474 1.883 4.476 4.358 4.476zm35.249-8.447c0 7.649-5.493 12.906-13.399 12.906h-9.877c-.477 0-.809-.368-.809-.845V10.582c0-.44.332-.809.809-.809h9.877c7.906 0 13.399 5.149 13.399 12.834zm-5.773 0c0-4.487-3.015-7.758-7.392-7.758h-5.406v15.59h5.406c4.377 0 7.392-3.42 7.392-7.832zm15.805-5.515c2.391 0 4.302 1.03 5.148 2.428v-1.103c0-.44.405-.809.773-.809h3.714c.441 0 .773.368.773.81v16.327a.755.755 0 01-.773.773h-3.714a.778.778 0 01-.773-.773v-1.141c-.846 1.398-2.794 2.427-5.185 2.427-4.632 0-8.935-3.714-8.935-9.487 0-5.813 4.339-9.452 8.972-9.452zm.993 13.998c2.462 0 4.307-1.89 4.307-4.512 0-2.623-1.845-4.513-4.307-4.513-2.462 0-4.307 1.89-4.307 4.513.002 2.624 1.847 4.512 4.307 4.512zm19.746-13.998c2.427 0 4.375 1.03 5.221 2.353v-8.899c0-.441.368-.773.809-.773h3.714c.441 0 .773.33.773.773v24.197a.755.755 0 01-.773.772h-3.714a.777.777 0 01-.773-.773v-1.14c-.993 1.397-2.795 2.427-5.184 2.427-4.633 0-8.936-3.714-8.936-9.488 0-5.81 4.267-9.449 8.863-9.449zm1.104 14.046c2.452 0 4.288-1.91 4.288-4.56 0-2.65-1.839-4.56-4.288-4.56-2.451 0-4.287 1.91-4.287 4.56-.003 2.65 1.836 4.56 4.287 4.56zm19.744-14.046c2.428 0 4.376 1.03 5.222 2.353v-8.899c0-.441.368-.773.809-.773h3.714c.441 0 .773.33.773.773v24.197a.755.755 0 01-.773.772h-3.714a.776.776 0 01-.773-.773v-1.14c-.993 1.397-2.794 2.427-5.185 2.427-4.632 0-8.935-3.714-8.935-9.488 0-5.81 4.266-9.449 8.862-9.449zm1.105 14.046c2.451 0 4.288-1.91 4.288-4.56 0-2.65-1.839-4.56-4.288-4.56-2.451 0-4.288 1.91-4.288 4.56 0 2.65 1.837 4.56 4.288 4.56zm28.27-13.532h-3.705c-.589 0-.882.405-.994.846l-3.421 12.79-3.662-12.79c-.212-.681-.544-.846-1.021-.846h-3.907c-.919 0-1.088.625-.906 1.25l4.956 15.886c.148.442.441.773.993.773h2.244l-.478 1.578c-.468 1.361-1.344 1.73-2.485 1.73-.978 0-1.621-.386-2.314-.835-.266-.171-.473-.253-.732-.253-.334 0-.563.15-.874.608l-1.1 1.649c-.214.342-.332.528-.332.894 0 .585.585.953 1.285 1.353 1.205.69 2.742 1.034 4.431 1.034 3.714 0 6.103-2.023 7.171-5.405l5.543-19.008c.265-.738.045-1.254-.692-1.254zM82.058 32c-1.946 2.46-5.33 4.006-9.158 4.006-7.189 0-12.806-5.406-12.806-13.106 0-8.002 6.065-13.516 13.726-13.516 5.656 0 10.18 2.431 12.185 7.323.063.16.093.287.093.409 0 .233-.153.407-.64.578l-3.582 1.379c-.276.091-.51.087-.679.01-.184-.083-.295-.255-.428-.49-1.273-2.443-3.57-4.102-7.088-4.102-4.566 0-7.833 3.567-7.833 8.189 0 4.48 2.788 8.162 7.964 8.162 2.725 0 4.898-1.289 5.91-2.695H76.49a.824.824 0 01-.84-.84v-2.759c0-.475.365-.839.84-.839h9.473c.475 0 .839.328.839.803v10.154c0 .475-.364.839-.84.839h-3.065a.824.824 0 01-.839-.84V32zm135.159-17.82a.244.244 0 00-.08-.19.32.32 0 00-.214-.07h-.316v.524h.316a.32.32 0 00.212-.075.24.24 0 00.082-.188zm-.677 1.322h-.327a.072.072 0 01-.045-.02.062.062 0 01-.02-.044v-1.844c0-.015.009-.03.022-.042a.062.062 0 01.045-.02h.726c.226 0 .41.06.547.184.14.122.206.28.206.471a.585.585 0 01-.098.328.646.646 0 01-.27.233l.417.651a.06.06 0 01.009.069c-.011.019-.032.03-.06.03h-.328a.143.143 0 01-.07-.018.197.197 0 01-.058-.058l-.368-.588h-.261v.604a.062.062 0 01-.02.044.077.077 0 01-.047.02zm.351.374c.379 0 .698-.13.955-.393.259-.264.387-.587.387-.97 0-.386-.128-.711-.387-.974a1.283 1.283 0 00-.955-.396c-.381 0-.702.132-.961.396-.259.263-.39.588-.39.974 0 .385.131.708.39.97.259.263.58.393.961.393zm-1.188-.184a1.652 1.652 0 01-.492-1.18c0-.226.043-.44.128-.646a1.61 1.61 0 01.364-.535c.154-.154.336-.272.542-.353a1.743 1.743 0 011.293.002 1.646 1.646 0 01.903.893c.084.203.124.417.124.642 0 .225-.04.439-.124.642a1.597 1.597 0 01-.364.537c-.154.154-.336.27-.539.354a1.73 1.73 0 01-.647.122 1.73 1.73 0 01-.646-.122 1.615 1.615 0 01-.542-.356z" fill="#fff"></path>
    </svg>
